<mxfile host="65bd71144e">
    <diagram id="Sm8iM9mTw7gXwJ1rGpNv" name="Page-1">
        <mxGraphModel dx="761" dy="616" grid="1" gridSize="10" guides="1" tooltips="1" connect="1" arrows="1" fold="1" page="1" pageScale="1" pageWidth="850" pageHeight="1100" math="0" shadow="0">
            <root>
                <mxCell id="0"/>
                <mxCell id="1" parent="0"/>
                <mxCell id="2" value="Authenticate" style="rounded=1;whiteSpace=wrap;html=1;" parent="1" vertex="1">
                    <mxGeometry x="510" y="190" width="90" height="30" as="geometry"/>
                </mxCell>
                <mxCell id="3" value="User" style="rounded=1;whiteSpace=wrap;html=1;" parent="1" vertex="1">
                    <mxGeometry x="280" y="330" width="90" height="30" as="geometry"/>
                </mxCell>
                <mxCell id="4" value="Session" style="rounded=1;whiteSpace=wrap;html=1;" parent="1" vertex="1">
                    <mxGeometry x="210" y="280" width="90" height="30" as="geometry"/>
                </mxCell>
                <mxCell id="5" value="Application" style="rounded=1;whiteSpace=wrap;html=1;" parent="1" vertex="1">
                    <mxGeometry x="280" y="230" width="90" height="30" as="geometry"/>
                </mxCell>
                <mxCell id="6" value="LDAP" style="rounded=1;whiteSpace=wrap;html=1;fillColor=#6a00ff;fontColor=#ffffff;strokeColor=#3700CC;" parent="1" vertex="1">
                    <mxGeometry x="280" y="380" width="90" height="30" as="geometry"/>
                </mxCell>
                <mxCell id="7" value="Account" style="rounded=1;whiteSpace=wrap;html=1;" parent="1" vertex="1">
                    <mxGeometry x="280" y="180" width="90" height="30" as="geometry"/>
                </mxCell>
                <mxCell id="8" value="LDAP User" style="rounded=1;whiteSpace=wrap;html=1;" parent="1" vertex="1">
                    <mxGeometry x="390" y="330" width="90" height="30" as="geometry"/>
                </mxCell>
                <mxCell id="9" value="Roles" style="rounded=1;whiteSpace=wrap;html=1;" vertex="1" parent="1">
                    <mxGeometry x="170" y="330" width="90" height="30" as="geometry"/>
                </mxCell>
                <mxCell id="10" value="Roles" style="rounded=1;whiteSpace=wrap;html=1;" vertex="1" parent="1">
                    <mxGeometry x="180" y="180" width="90" height="30" as="geometry"/>
                </mxCell>
            </root>
        </mxGraphModel>
    </diagram>
</mxfile>
